<svg height="30" viewBox="0 0 118 30" width="118" xmlns="http://www.w3.org/2000/svg" xmlns:xlink="http://www.w3.org/1999/xlink"><mask id="a" fill="#fff"><path d="m0 .36612582h17.6341768v18.09746518h-17.6341768z" fill="#fff" fill-rule="evenodd"/></mask><mask id="b" fill="#fff"><path d="m.50952733.4021399h5.81312816v5.89107212h-5.81312816z" fill="#fff" fill-rule="evenodd"/></mask><g fill="#ff516e" fill-rule="evenodd"><path d="m9.92184848.36612582c-3.33614381 0-5.45919721 1.8977729-6.10958556 2.60411356l-.60567415-1.63274726c-.13065837-.30939377-.34726092-.53005128-.73749393-.53005128h-1.64629551c-.43320509 0-.8228574.35317033-.8228574.83826191v15.97962635c0 .441315.38965231.8382619.8228574.8382619h3.20664685c.8234381 0 1.08359344-.2206575 1.08359344-.8382619v-9.71129668c.4332051-1.19202381 1.81934527-2.78040293 4.07247634-2.78040293 2.07950064 0 3.24961894 1.45645787 3.24961894 3.75117765v8.74052196c0 .441315.3466802.8382619.8234381.8382619h3.5527464c.4332051 0 .8228574-.3969469.8228574-.8382619v-8.47490474c0-4.59121429-2.2089976-8.78429854-7.71232832-8.78429854" mask="url(#a)" transform="translate(0 11)"/><path d="m27.9997058 25.3710511c-2.3705423 0-4.2144935-1.9712809-4.2144935-4.4141298 0-2.3997702 1.8439512-4.3285468 4.2144935-4.3285468 2.3270029 0 4.2144935 1.9287766 4.2144935 4.3285468 0 2.4428489-1.8874906 4.4141298-4.2144935 4.4141298m0-13.3710511c-4.9611349 0-8.9997058 4.1143021-8.9997058 8.9569213 0 4.9287766 4.0385709 9.0430787 8.9997058 9.0430787s9.0002942-4.1143021 9.0002942-9.0430787c0-4.8426192-4.0391593-8.9569213-9.0002942-8.9569213"/><path d="m44.0581589 12h-4.1163178c-.4958458 0-.9418411.3600482-.9418411.8545869v16.2908262c0 .4499096.4459953.8545869.9418411.8545869h4.1163178c.4958458 0 .9418411-.4046773.9418411-.8545869v-16.2908262c0-.4945387-.4459953-.8545869-.9418411-.8545869"/><path d="m41.9565893 0c-1.6525202 0-2.9565893 1.3477712-2.9565893 2.99970865 0 1.65193746 1.3040691 3.00029135 2.9565893 3.00029135 1.6950568 0 3.0434107-1.34835389 3.0434107-3.00029135 0-1.65193745-1.3483539-2.99970865-3.0434107-2.99970865"/><path d="m53.2078468 18.7283171c-1.5876239-.6427341-2.3598726-.8994831-2.3598726-1.6708788 0-.5577255.4295382-.9862149 1.4593949-.9862149 1.6301751 0 3.5610845.9000575 3.5610845.9000575.3427106.1286617.8148001.0861574 1.0292817-.2998277l1.072983-2.1861c.2144816-.4284893 0-.899483-.3864119-1.1568064-.9010527-.5996554-2.7457094-1.3285468-5.2769373-1.3285468-4.3770347 0-6.3073691 2.4428489-6.3073691 5.0574383 0 2.6140149 1.5439225 4.3710511 4.8479742 5.6565192 2.27477.9006318 2.8750884 1.3716255 2.8750884 2.1435956 0 .7277427-.6003184 1.0712235-1.4593949 1.0712235-1.9734607 0-3.9043701-1.0287192-3.9043701-1.0287192-.3864119-.2142446-.8153751-.1286617-.9861553.3004021l-1.1586607 2.3141873c-.1719303.3429063 0 .6852383.2570329.899483.9016278.6863871 2.8750885 1.5858702 5.7064756 1.5858702 4.3339083 0 6.8220099-2.3997702 6.8220099-5.2286043 0-3.3429063-2.4881016-4.7570361-5.7921532-6.0430786"/><path d="m67.207528 18.7283171c-1.5869787-.6427341-2.3597683-.8994831-2.3597683-1.6708788 0-.5577255.4295193-.9862149 1.4593304-.9862149 1.630678 0 3.5609271.9000575 3.5609271.9000575.3432703.1286617.815339.0861574 1.0298111-.2998277l1.0723606-2.1861c.2144721-.4284893 0-.899483-.3863948-1.1568064-.9004379-.5996554-2.7455881-1.3285468-5.276704-1.3285468-4.3768411 0-6.3070901 2.4428489-6.3070901 5.0574383 0 2.6140149 1.5444292 4.3710511 4.8477597 5.6565192 2.2746694.9006318 2.8749613 1.3716255 2.8749613 2.1435956 0 .7277427-.6002919 1.0712235-1.4587553 1.0712235-1.9733735 0-3.9047725-1.0287192-3.9047725-1.0287192-.3858198-.2142446-.814764-.1286617-.9855367.3004021l-1.1591844 2.3141873c-.1713477.3429063 0 .6852383.2575965.899483.9015879.6863871 2.8743864 1.5858702 5.7062232 1.5858702 4.3331417 0 6.8217082-2.3997702 6.8217082-5.2286043 0-3.3429063-2.4885665-4.7570361-5.792472-6.0430786"/><path d="m90.1716151 12h-3.3123711c-.6975258 0-.959244.17534-.959244.8337474v9.1317991c-.2617182 1.5810016-1.6561856 3.2926256-3.4870447 3.2926256-2.0049484 0-3.1826804-1.448614-3.1826804-3.7751046v-8.6493201c0-.4824791-.3919931-.8337474-.8278007-.8337474h-3.5740893c-.4363918 0-.8283849.3512683-.8283849.8337474v8.5175209c0 4.4782296 1.9617182 8.6487317 7.3666667 8.6487317 3.4432302 0 5.0567697-1.8440115 5.840756-2.5459597l.5234364 1.448614c.1302749.3506799.3919931.6584074.8278007.6584074h1.6129553c.4358076 0 .8283849-.3948091.8283849-.8337474v-15.8935669c0-.4824791-.3925773-.8337474-.8283849-.8337474"/><path d="m98.3479349 18.8571976c.2173436-1.6290009 1.651928-2.91451 3.3912601-2.91451 1.651928 0 3.043976 1.3285892 3.173916 2.91451zm3.5217821-6.8571976c-5.1737101 0-8.869717 4.1569391-8.869717 8.9997128 0 4.9295082 3.6960069 9.0002872 8.912836 9.0002872 2.826633 0 5.043771-1.0281776 6.478355-2.3567668.434687-.3429173.347866-.8145004.044285-1.114912l-1.783617-2.0138495c-.304164-.3429173-.695149-.2573316-1.129837 0-.782553.5571689-2.043496 1.0712576-3.391842 1.0712576-2.5213025 0-4.0432905-1.9713437-4.1732306-3.728436h11.1305566c.390986 0 .781971-.3004117.825673-.7289147.043702-.2998373.086821-.8570061.086821-1.1574178 0-4.6285221-3.652305-7.9709608-8.130283-7.9709608z"/><path d="m3.37417185.4021399c-1.60112965 0-2.86464452 1.32330289-2.86464452 2.94525 0 1.62194712 1.26351487 2.94582212 2.86464452 2.94582212 1.6423435 0 2.94876593-1.323875 2.94876593-2.94582212 0-1.62194711-1.30642243-2.94525-2.94876593-2.94525" mask="url(#b)" transform="translate(111 23)"/></g></svg>